  0
SECTION
  2
HEADER
  9
$ACADVER
  1
AC1014
  9
$HANDSEED
  5
FFFF
  9
$MEASUREMENT
 70
     1
  0
ENDSEC
  0
SECTION
  2
TABLES
  0
TABLE
  2
VPORT
  5
8
330
0
100
AcDbSymbolTable
 70
     4
  0
VPORT
  5
2E
330
8
100
AcDbSymbolTableRecord
100
AcDbViewportTableRecord
  2
*ACTIVE
 70
     0
 10
0.0
 20
0.0
 11
1.0
 21
1.0
 12
210.0
 22
148.5
 13
0.0
 23
0.0
 14
10.0
 24
10.0
 15
10.0
 25
10.0
 16
0.0
 26
0.0
 36
1.0
 17
0.0
 27
0.0
 37
0.0
 40
341.0
 41
1.24
 42
50.0
 43
0.0
 44
0.0
 50
0.0
 51
0.0
 71
     0
 72
   100
 73
     1
 74
     3
 75
     0
 76
     0
 77
     0
 78
     0
  0
ENDTAB
  0
TABLE
  2
LTYPE
  5
5
330
0
100
AcDbSymbolTable
 70
     1
  0
LTYPE
  5
14
330
5
100
AcDbSymbolTableRecord
100
AcDbLinetypeTableRecord
  2
BYBLOCK
 70
     0
  3

 72
    65
 73
     0
 40
0.0
  0
LTYPE
  5
15
330
5
100
AcDbSymbolTableRecord
100
AcDbLinetypeTableRecord
  2
BYLAYER
 70
     0
  3

 72
    65
 73
     0
 40
0.0
  0
LTYPE
  5
16
330
5
100
AcDbSymbolTableRecord
100
AcDbLinetypeTableRecord
  2
CONTINUOUS
 70
     0
  3
Solid line
 72
    65
 73
     0
 40
0.0
  0
ENDTAB
  0
TABLE
  2
LAYER
  5
2
100
AcDbSymbolTable
 70
2
  0
LAYER
  5
50
100
AcDbSymbolTableRecord
100
AcDbLayerTableRecord
  2
0
 70
0
  6
CONTINUOUS
  0
LAYER
  5
51
100
AcDbSymbolTableRecord
100
AcDbLayerTableRecord
  2
Lag_1
 70
0
  6
CONTINUOUS
  0
ENDTAB
  0
TABLE
  2
STYLE
  5
3
330
0
100
AcDbSymbolTable
 70
     1
  0
STYLE
  5
11
330
3
100
AcDbSymbolTableRecord
100
AcDbTextStyleTableRecord
  2
STANDARD
 70
     0
 40
0.0
 41
1.0
 50
0.0
 71
     0
 42
2.5
  3
txt
  4

  0
ENDTAB
  0
TABLE
  2
VIEW
  5
6
330
0
100
AcDbSymbolTable
 70
     0
  0
ENDTAB
  0
TABLE
  2
UCS
  5
7
330
0
100
AcDbSymbolTable
 70
     0
  0
ENDTAB
  0
TABLE
  2
APPID
  5
9
330
0
100
AcDbSymbolTable
 70
     2
  0
APPID
  5
12
330
9
100
AcDbSymbolTableRecord
100
AcDbRegAppTableRecord
  2
ACAD
 70
     0
  0
ENDTAB
  0
TABLE
  2
DIMSTYLE
  5
A
330
0
100
AcDbSymbolTable
 70
     1
  0
DIMSTYLE
105
27
330
A
100
AcDbSymbolTableRecord
100
AcDbDimStyleTableRecord
  2
ISO-25
 70
     0
  3

  4

  5

  6

  7

 40
1.0
 41
2.5
 42
0.625
 43
3.75
 44
1.25
 45
0.0
 46
0.0
 47
0.0
 48
0.0
140
2.5
141
2.5
142
0.0
143
0.03937007874016
144
1.0
145
0.0
146
1.0
147
0.625
 71
     0
 72
     0
 73
     0
 74
     0
 75
     0
 76
     0
 77
     1
 78
     8
170
     0
171
     3
172
     1
173
     0
174
     0
175
     0
176
     0
177
     0
178
     0
270
     2
271
     2
272
     2
273
     2
274
     3
340
11
275
     0
280
     0
281
     0
282
     0
283
     0
284
     8
285
     0
286
     0
287
     3
288
     0
  0
ENDTAB
  0
TABLE
  2
BLOCK_RECORD
  5
1
330
0
100
AcDbSymbolTable
 70
     1
  0
BLOCK_RECORD
  5
1F
330
1
100
AcDbSymbolTableRecord
100
AcDbBlockTableRecord
  2
*MODEL_SPACE
  0
BLOCK_RECORD
  5
1B
330
1
100
AcDbSymbolTableRecord
100
AcDbBlockTableRecord
  2
*PAPER_SPACE
  0
ENDTAB
  0
ENDSEC
  0
SECTION
  2
BLOCKS
  0
BLOCK
  5
20
330
1F
100
AcDbEntity
  8
0
100
AcDbBlockBegin
  2
*MODEL_SPACE
 70
     0
 10
0.0
 20
0.0
 30
0.0
  3
*MODEL_SPACE
  1

  0
ENDBLK
  5
21
330
1F
100
AcDbEntity
  8
0
100
AcDbBlockEnd
  0
BLOCK
  5
1C
330
1B
100
AcDbEntity
 67
     1
  8
0
100
AcDbBlockBegin
  2
*PAPER_SPACE
  1

  0
ENDBLK
  5
1D
330
1B
100
AcDbEntity
 67
     1
  8
0
100
AcDbBlockEnd
  0
ENDSEC
  0
SECTION
  2
ENTITIES
  0
LWPOLYLINE
  5
100
100
AcDbEntity
  8
Lag_1
 62
7
100
AcDbPolyline
 90
4
 70
1
 10
29.757883
 20
877.328731
 30
0.0
 10
593.864192
 20
877.328731
 30
0.0
 10
593.864192
 20
29.757912
 30
0.0
 10
29.757883
 20
29.757912
 30
0.0
  0
LWPOLYLINE
  5
101
100
AcDbEntity
  8
Lag_1
 62
7
100
AcDbPolyline
 90
4
 70
1
 10
28.346457
 20
878.740157
 30
0.0
 10
595.275591
 20
878.740157
 30
0.0
 10
595.275591
 20
595.275591
 30
0.0
 10
28.346457
 20
595.275591
 30
0.0
  0
LWPOLYLINE
  5
102
100
AcDbEntity
  8
Lag_1
 62
7
100
AcDbPolyline
 90
4
 70
1
 10
385.401090
 20
772.440945
 30
0.0
 10
385.401090
 20
702.958907
 30
0.0
 10
393.794306
 20
702.958907
 30
0.0
 10
393.794306
 20
772.440945
 30
0.0
  0
SPLINE
  5
103
100
AcDbEntity
  8
Lag_1
 62
7
100
AcDbSpline
 70
8
 71
3
 72
8
 73
4
 74
0
 40
0
 40
0
 40
0
 40
0
 40
1
 40
1
 40
1
 40
1
 10
181.954355
 20
770.652683
 30
0.0
 10
177.072174
 20
770.652683
 30
0.0
 10
172.624924
 20
769.895456
 30
0.0
 10
168.606054
 20
768.377214
 30
0.0
  0
SPLINE
  5
104
100
AcDbEntity
  8
Lag_1
 62
7
100
AcDbSpline
 70
8
 71
3
 72
8
 73
4
 74
0
 40
0
 40
0
 40
0
 40
0
 40
1
 40
1
 40
1
 40
1
 10
168.606054
 20
768.377214
 30
0.0
 10
164.616951
 20
766.858975
 30
0.0
 10
161.208383
 20
764.654366
 30
0.0
 10
158.380291
 20
761.766732
 30
0.0
  0
SPLINE
  5
105
100
AcDbEntity
  8
Lag_1
 62
7
100
AcDbSpline
 70
8
 71
3
 72
8
 73
4
 74
0
 40
0
 40
0
 40
0
 40
0
 40
1
 40
1
 40
1
 40
1
 10
158.380291
 20
761.766732
 30
0.0
 10
155.462888
 20
758.789793
 30
0.0
 10
153.229235
 20
755.143336
 30
0.0
 10
151.681226
 20
750.826772
 30
0.0
  0
SPLINE
  5
106
100
AcDbEntity
  8
Lag_1
 62
7
100
AcDbSpline
 70
8
 71
3
 72
8
 73
4
 74
0
 40
0
 40
0
 40
0
 40
0
 40
1
 40
1
 40
1
 40
1
 10
151.681226
 20
750.826772
 30
0.0
 10
150.133215
 20
746.510207
 30
0.0
 10
149.361466
 20
741.616228
 30
0.0
 10
149.361466
 20
736.138655
 30
0.0
  0
SPLINE
  5
107
100
AcDbEntity
  8
Lag_1
 62
7
100
AcDbSpline
 70
8
 71
3
 72
8
 73
4
 74
0
 40
0
 40
0
 40
0
 40
0
 40
1
 40
1
 40
1
 40
1
 10
149.361466
 20
736.138655
 30
0.0
 10
149.361466
 20
730.363391
 30
0.0
 10
150.162259
 20
725.284074
 30
0.0
 10
151.769809
 20
720.907971
 30
0.0
  0
SPLINE
  5
108
100
AcDbEntity
  8
Lag_1
 62
7
100
AcDbSpline
 70
8
 71
3
 72
8
 73
4
 74
0
 40
0
 40
0
 40
0
 40
0
 40
1
 40
1
 40
1
 40
1
 10
151.769809
 20
720.907971
 30
0.0
 10
153.377357
 20
716.561637
 30
0.0
 10
155.611012
 20
712.978807
 30
0.0
 10
158.468873
 20
710.150715
 30
0.0
  0
SPLINE
  5
109
100
AcDbEntity
  8
Lag_1
 62
7
100
AcDbSpline
 70
8
 71
3
 72
8
 73
4
 74
0
 40
0
 40
0
 40
0
 40
0
 40
1
 40
1
 40
1
 40
1
 10
158.468873
 20
710.150715
 30
0.0
 10
161.386277
 20
707.263081
 30
0.0
 10
164.809363
 20
705.131082
 30
0.0
 10
168.738928
 20
703.761687
 30
0.0
  0
SPLINE
  5
10a
100
AcDbEntity
  8
Lag_1
 62
7
100
AcDbSpline
 70
8
 71
3
 72
8
 73
4
 74
0
 40
0
 40
0
 40
0
 40
0
 40
1
 40
1
 40
1
 40
1
 10
168.738928
 20
703.761687
 30
0.0
 10
172.698259
 20
702.422065
 30
0.0
 10
177.087421
 20
701.751969
 30
0.0
 10
181.910064
 20
701.751969
 30
0.0
  0
SPLINE
  5
10b
100
AcDbEntity
  8
Lag_1
 62
7
100
AcDbSpline
 70
8
 71
3
 72
8
 73
4
 74
0
 40
0
 40
0
 40
0
 40
0
 40
1
 40
1
 40
1
 40
1
 10
181.910064
 20
701.751969
 30
0.0
 10
184.470233
 20
701.751969
 30
0.0
 10
186.811075
 20
701.960797
 30
0.0
 10
188.924706
 20
702.377583
 30
0.0
  0
SPLINE
  5
10c
100
AcDbEntity
  8
Lag_1
 62
7
100
AcDbSpline
 70
8
 71
3
 72
8
 73
4
 74
0
 40
0
 40
0
 40
0
 40
0
 40
1
 40
1
 40
1
 40
1
 10
188.924706
 20
702.377583
 30
0.0
 10
191.068101
 20
702.764586
 30
0.0
 10
193.043809
 20
703.240362
 30
0.0
 10
194.859746
 20
703.805978
 30
0.0
  0
SPLINE
  5
10d
100
AcDbEntity
  8
Lag_1
 62
7
100
AcDbSpline
 70
8
 71
3
 72
8
 73
4
 74
0
 40
0
 40
0
 40
0
 40
0
 40
1
 40
1
 40
1
 40
1
 10
194.859746
 20
703.805978
 30
0.0
 10
197.003143
 20
704.490676
 30
0.0
 10
198.731976
 20
705.146250
 30
0.0
 10
200.041829
 20
705.771408
 30
0.0
  0
SPLINE
  5
10e
100
AcDbEntity
  8
Lag_1
 62
7
100
AcDbSpline
 70
8
 71
3
 72
8
 73
4
 74
0
 40
0
 40
0
 40
0
 40
0
 40
1
 40
1
 40
1
 40
1
 10
200.041829
 20
705.771408
 30
0.0
 10
201.381454
 20
706.396567
 30
0.0
 10
202.872404
 20
707.066663
 30
0.0
 10
204.509718
 20
707.781127
 30
0.0
  0
LWPOLYLINE
  5
10f
100
AcDbEntity
  8
Lag_1
 62
7
100
AcDbPolyline
 90
4
 70
1
 10
410.497654
 20
772.440945
 30
0.0
 10
410.497654
 20
702.958907
 30
0.0
 10
418.890869
 20
702.958907
 30
0.0
 10
418.890869
 20
772.440945
 30
0.0
  0
SPLINE
  5
110
100
AcDbEntity
  8
Lag_1
 62
7
100
AcDbSpline
 70
8
 71
3
 72
8
 73
4
 74
0
 40
0
 40
0
 40
0
 40
0
 40
1
 40
1
 40
1
 40
1
 10
203.884104
 20
718.139764
 30
0.0
 10
200.639239
 20
715.222361
 30
0.0
 10
197.152523
 20
713.037810
 30
0.0
 10
193.431348
 20
711.579110
 30
0.0
  0
SPLINE
  5
111
100
AcDbEntity
  8
Lag_1
 62
7
100
AcDbSpline
 70
8
 71
3
 72
8
 73
4
 74
0
 40
0
 40
0
 40
0
 40
0
 40
1
 40
1
 40
1
 40
1
 10
193.431348
 20
711.579110
 30
0.0
 10
189.710172
 20
710.120409
 30
0.0
 10
185.724176
 20
709.386687
 30
0.0
 10
181.467150
 20
709.386687
 30
0.0
  0
SPLINE
  5
112
100
AcDbEntity
  8
Lag_1
 62
7
100
AcDbSpline
 70
8
 71
3
 72
8
 73
4
 74
0
 40
0
 40
0
 40
0
 40
0
 40
1
 40
1
 40
1
 40
1
 10
181.467150
 20
709.386687
 30
0.0
 10
178.371133
 20
709.386687
 30
0.0
 10
175.423816
 20
709.911564
 30
0.0
 10
172.625494
 20
710.953495
 30
0.0
  0
SPLINE
  5
113
100
AcDbEntity
  8
Lag_1
 62
7
100
AcDbSpline
 70
8
 71
3
 72
8
 73
4
 74
0
 40
0
 40
0
 40
0
 40
0
 40
1
 40
1
 40
1
 40
1
 10
172.625494
 20
710.953495
 30
0.0
 10
169.856938
 20
712.025192
 30
0.0
 10
167.428962
 20
713.661361
 30
0.0
 10
165.345103
 20
715.864297
 30
0.0
  0
SPLINE
  5
114
100
AcDbEntity
  8
Lag_1
 62
7
100
AcDbSpline
 70
8
 71
3
 72
8
 73
4
 74
0
 40
0
 40
0
 40
0
 40
0
 40
1
 40
1
 40
1
 40
1
 10
165.345103
 20
715.864297
 30
0.0
 10
163.350553
 20
717.977925
 30
0.0
 10
161.714387
 20
720.716397
 30
0.0
 10
160.434300
 20
724.080339
 30
0.0
  0
SPLINE
  5
115
100
AcDbEntity
  8
Lag_1
 62
7
100
AcDbSpline
 70
8
 71
3
 72
8
 73
4
 74
0
 40
0
 40
0
 40
0
 40
0
 40
1
 40
1
 40
1
 40
1
 10
160.434300
 20
724.080339
 30
0.0
 10
159.183984
 20
727.444284
 30
0.0
 10
158.557456
 20
731.464858
 30
0.0
 10
158.557456
 20
736.138655
 30
0.0
  0
SPLINE
  5
116
100
AcDbEntity
  8
Lag_1
 62
7
100
AcDbSpline
 70
8
 71
3
 72
8
 73
4
 74
0
 40
0
 40
0
 40
0
 40
0
 40
1
 40
1
 40
1
 40
1
 10
158.557456
 20
736.138655
 30
0.0
 10
158.557456
 20
740.604067
 30
0.0
 10
159.125896
 20
744.531976
 30
0.0
 10
160.257135
 20
747.925688
 30
0.0
  0
SPLINE
  5
117
100
AcDbEntity
  8
Lag_1
 62
7
100
AcDbSpline
 70
8
 71
3
 72
8
 73
4
 74
0
 40
0
 40
0
 40
0
 40
0
 40
1
 40
1
 40
1
 40
1
 10
160.257135
 20
747.925688
 30
0.0
 10
161.418144
 20
751.349171
 30
0.0
 10
163.025266
 20
754.174774
 30
0.0
 10
165.079355
 20
756.407480
 30
0.0
  0
SPLINE
  5
118
100
AcDbEntity
  8
Lag_1
 62
7
100
AcDbSpline
 70
8
 71
3
 72
8
 73
4
 74
0
 40
0
 40
0
 40
0
 40
0
 40
1
 40
1
 40
1
 40
1
 10
165.079355
 20
756.407480
 30
0.0
 10
167.192983
 20
758.699725
 30
0.0
 10
169.586379
 20
760.384993
 30
0.0
 10
172.265624
 20
761.456693
 30
0.0
  0
SPLINE
  5
119
100
AcDbEntity
  8
Lag_1
 62
7
100
AcDbSpline
 70
8
 71
3
 72
8
 73
4
 74
0
 40
0
 40
0
 40
0
 40
0
 40
1
 40
1
 40
1
 40
1
 10
172.265624
 20
761.456693
 30
0.0
 10
174.974641
 20
762.558160
 30
0.0
 10
178.014626
 20
763.106545
 30
0.0
 10
181.378568
 20
763.106545
 30
0.0
  0
SPLINE
  5
11a
100
AcDbEntity
  8
Lag_1
 62
7
100
AcDbSpline
 70
8
 71
3
 72
8
 73
4
 74
0
 40
0
 40
0
 40
0
 40
0
 40
1
 40
1
 40
1
 40
1
 10
181.378568
 20
763.106545
 30
0.0
 10
185.486749
 20
763.106545
 30
0.0
 10
189.342045
 20
762.407405
 30
0.0
 10
192.944143
 20
761.008243
 30
0.0
  0
SPLINE
  5
11b
100
AcDbEntity
  8
Lag_1
 62
7
100
AcDbSpline
 70
8
 71
3
 72
8
 73
4
 74
0
 40
0
 40
0
 40
0
 40
0
 40
1
 40
1
 40
1
 40
1
 10
192.944143
 20
761.008243
 30
0.0
 10
196.546241
 20
759.609082
 30
0.0
 10
200.178176
 20
757.375427
 30
0.0
 10
203.839812
 20
754.309179
 30
0.0
  0
LWPOLYLINE
  5
11c
100
AcDbEntity
  8
Lag_1
 62
7
100
AcDbPolyline
 90
3
 70
0
 10
204.509718
 20
707.781127
 30
0.0
 10
204.509718
 20
718.139764
 30
0.0
 10
203.884104
 20
718.139764
 30
0.0
  0
SPLINE
  5
11d
100
AcDbEntity
  8
Lag_1
 62
7
100
AcDbSpline
 70
8
 71
3
 72
8
 73
4
 74
0
 40
0
 40
0
 40
0
 40
0
 40
1
 40
1
 40
1
 40
1
 10
204.509718
 20
764.806226
 30
0.0
 10
200.163387
 20
766.979391
 30
0.0
 10
196.200899
 20
768.493845
 30
0.0
 10
192.628568
 20
769.357159
 30
0.0
  0
SPLINE
  5
11e
100
AcDbEntity
  8
Lag_1
 62
7
100
AcDbSpline
 70
8
 71
3
 72
8
 73
4
 74
0
 40
0
 40
0
 40
0
 40
0
 40
1
 40
1
 40
1
 40
1
 10
192.628568
 20
769.357159
 30
0.0
 10
189.086009
 20
770.220473
 30
0.0
 10
185.526686
 20
770.652683
 30
0.0
 10
181.954355
 20
770.652683
 30
0.0
  0
LWPOLYLINE
  5
11f
100
AcDbEntity
  8
Lag_1
 62
7
100
AcDbPolyline
 90
3
 70
0
 10
203.839812
 20
754.309179
 30
0.0
 10
204.509718
 20
754.309179
 30
0.0
 10
204.509718
 20
764.806226
 30
0.0
  0
LWPOLYLINE
  5
120
100
AcDbEntity
  8
Lag_1
 62
7
100
AcDbPolyline
 90
1
 70
1
 10
181.954355
 20
770.652683
 30
0.0
  0
SPLINE
  5
121
100
AcDbEntity
  8
Lag_1
 62
7
100
AcDbSpline
 70
8
 71
3
 72
8
 73
4
 74
0
 40
0
 40
0
 40
0
 40
0
 40
1
 40
1
 40
1
 40
1
 10
295.827392
 20
754.220597
 30
0.0
 10
292.880211
 20
754.220597
 30
0.0
 10
290.092649
 20
753.614124
 30
0.0
 10
287.472926
 20
752.393577
 30
0.0
  0
SPLINE
  5
122
100
AcDbEntity
  8
Lag_1
 62
7
100
AcDbSpline
 70
8
 71
3
 72
8
 73
4
 74
0
 40
0
 40
0
 40
0
 40
0
 40
1
 40
1
 40
1
 40
1
 10
287.472926
 20
752.393577
 30
0.0
 10
284.882995
 20
751.173032
 30
0.0
 10
282.280762
 20
749.473243
 30
0.0
 10
279.661048
 20
747.300073
 30
0.0
  0
LWPOLYLINE
  5
123
100
AcDbEntity
  8
Lag_1
 62
7
100
AcDbPolyline
 90
4
 70
1
 10
359.767474
 20
769.894191
 30
0.0
 10
359.767474
 20
761.185409
 30
0.0
 10
369.234737
 20
761.185409
 30
0.0
 10
369.234737
 20
769.894191
 30
0.0
  0
SPLINE
  5
124
100
AcDbEntity
  8
Lag_1
 62
7
100
AcDbSpline
 70
8
 71
3
 72
8
 73
4
 74
0
 40
0
 40
0
 40
0
 40
0
 40
1
 40
1
 40
1
 40
1
 10
279.661048
 20
740.202386
 30
0.0
 10
281.953293
 20
741.958781
 30
0.0
 10
284.245030
 20
743.400626
 30
0.0
 10
286.537266
 20
744.531866
 30
0.0
  0
SPLINE
  5
125
100
AcDbEntity
  8
Lag_1
 62
7
100
AcDbSpline
 70
8
 71
3
 72
8
 73
4
 74
0
 40
0
 40
0
 40
0
 40
0
 40
1
 40
1
 40
1
 40
1
 10
286.537266
 20
744.531866
 30
0.0
 10
288.859294
 20
745.663102
 30
0.0
 10
291.165562
 20
746.231545
 30
0.0
 10
293.457798
 20
746.231545
 30
0.0
  0
SPLINE
  5
126
100
AcDbEntity
  8
Lag_1
 62
7
100
AcDbSpline
 70
8
 71
3
 72
8
 73
4
 74
0
 40
0
 40
0
 40
0
 40
0
 40
1
 40
1
 40
1
 40
1
 10
293.457798
 20
746.231545
 30
0.0
 10
295.869118
 20
746.231545
 30
0.0
 10
297.714161
 20
745.900991
 30
0.0
 10
298.994230
 20
745.246063
 30
0.0
  0
SPLINE
  5
127
100
AcDbEntity
  8
Lag_1
 62
7
100
AcDbSpline
 70
8
 71
3
 72
8
 73
4
 74
0
 40
0
 40
0
 40
0
 40
0
 40
1
 40
1
 40
1
 40
1
 10
298.994230
 20
745.246063
 30
0.0
 10
300.274299
 20
744.620907
 30
0.0
 10
301.260416
 20
743.669357
 30
0.0
 10
301.945124
 20
742.389273
 30
0.0
  0
SPLINE
  5
128
100
AcDbEntity
  8
Lag_1
 62
7
100
AcDbSpline
 70
8
 71
3
 72
8
 73
4
 74
0
 40
0
 40
0
 40
0
 40
0
 40
1
 40
1
 40
1
 40
1
 10
301.945124
 20
742.389273
 30
0.0
 10
302.570306
 20
741.198495
 30
0.0
 10
302.967950
 20
739.605895
 30
0.0
 10
303.146532
 20
737.611345
 30
0.0
  0
SPLINE
  5
129
100
AcDbEntity
  8
Lag_1
 62
7
100
AcDbSpline
 70
8
 71
3
 72
8
 73
4
 74
0
 40
0
 40
0
 40
0
 40
0
 40
1
 40
1
 40
1
 40
1
 10
303.146532
 20
737.611345
 30
0.0
 10
303.354879
 20
735.646561
 30
0.0
 10
303.462113
 20
733.563663
 30
0.0
 10
303.462113
 20
731.360727
 30
0.0
  0
LWPOLYLINE
  5
12a
100
AcDbEntity
  8
Lag_1
 62
7
100
AcDbPolyline
 90
6
 70
0
 10
279.661048
 20
747.300073
 30
0.0
 10
279.661048
 20
752.836490
 30
0.0
 10
271.267841
 20
752.836490
 30
0.0
 10
271.267841
 20
702.958907
 30
0.0
 10
279.661048
 20
702.958907
 30
0.0
 10
279.661048
 20
740.202386
 30
0.0
  0
SPLINE
  5
12b
100
AcDbEntity
  8
Lag_1
 62
7
100
AcDbSpline
 70
8
 71
3
 72
8
 73
4
 74
0
 40
0
 40
0
 40
0
 40
0
 40
1
 40
1
 40
1
 40
1
 10
311.855301
 20
734.887426
 30
0.0
 10
311.855301
 20
735.780509
 30
0.0
 10
311.826387
 20
736.673970
 30
0.0
 10
311.766860
 20
737.567053
 30
0.0
  0
SPLINE
  5
12c
100
AcDbEntity
  8
Lag_1
 62
7
100
AcDbSpline
 70
8
 71
3
 72
8
 73
4
 74
0
 40
0
 40
0
 40
0
 40
0
 40
1
 40
1
 40
1
 40
1
 10
311.766860
 20
737.567053
 30
0.0
 10
311.707332
 20
738.489903
 30
0.0
 10
311.634765
 20
739.290696
 30
0.0
 10
311.545474
 20
739.975394
 30
0.0
  0
SPLINE
  5
12d
100
AcDbEntity
  8
Lag_1
 62
7
100
AcDbSpline
 70
8
 71
3
 72
8
 73
4
 74
0
 40
0
 40
0
 40
0
 40
0
 40
1
 40
1
 40
1
 40
1
 10
311.545474
 20
739.975394
 30
0.0
 10
313.897266
 20
741.791327
 30
0.0
 10
316.247102
 20
743.282277
 30
0.0
 10
318.598866
 20
744.443283
 30
0.0
  0
SPLINE
  5
12e
100
AcDbEntity
  8
Lag_1
 62
7
100
AcDbSpline
 70
8
 71
3
 72
8
 73
4
 74
0
 40
0
 40
0
 40
0
 40
0
 40
1
 40
1
 40
1
 40
1
 10
318.598866
 20
744.443283
 30
0.0
 10
320.950658
 20
745.634058
 30
0.0
 10
323.300494
 20
746.231545
 30
0.0
 10
325.652258
 20
746.231545
 30
0.0
  0
SPLINE
  5
12f
100
AcDbEntity
  8
Lag_1
 62
7
100
AcDbSpline
 70
8
 71
3
 72
8
 73
4
 74
0
 40
0
 40
0
 40
0
 40
0
 40
1
 40
1
 40
1
 40
1
 10
325.652258
 20
746.231545
 30
0.0
 10
328.063578
 20
746.231545
 30
0.0
 10
329.908592
 20
745.900991
 30
0.0
 10
331.188690
 20
745.246063
 30
0.0
  0
SPLINE
  5
130
100
AcDbEntity
  8
Lag_1
 62
7
100
AcDbSpline
 70
8
 71
3
 72
8
 73
4
 74
0
 40
0
 40
0
 40
0
 40
0
 40
1
 40
1
 40
1
 40
1
 10
331.188690
 20
745.246063
 30
0.0
 10
332.468759
 20
744.591138
 30
0.0
 10
333.454904
 20
743.625065
 30
0.0
 10
334.139584
 20
742.344979
 30
0.0
  0
SPLINE
  5
131
100
AcDbEntity
  8
Lag_1
 62
7
100
AcDbSpline
 70
8
 71
3
 72
8
 73
4
 74
0
 40
0
 40
0
 40
0
 40
0
 40
1
 40
1
 40
1
 40
1
 10
334.139584
 20
742.344979
 30
0.0
 10
334.764794
 20
741.154204
 30
0.0
 10
335.167937
 20
739.561603
 30
0.0
 10
335.346520
 20
737.567053
 30
0.0
  0
SPLINE
  5
132
100
AcDbEntity
  8
Lag_1
 62
7
100
AcDbSpline
 70
8
 71
3
 72
8
 73
4
 74
0
 40
0
 40
0
 40
0
 40
0
 40
1
 40
1
 40
1
 40
1
 10
335.346520
 20
737.567053
 30
0.0
 10
335.554866
 20
735.572500
 30
0.0
 10
335.656573
 20
733.504124
 30
0.0
 10
335.656573
 20
731.360727
 30
0.0
  0
LWPOLYLINE
  5
133
100
AcDbEntity
  8
Lag_1
 62
7
100
AcDbPolyline
 90
4
 70
0
 10
303.462113
 20
731.360727
 30
0.0
 10
303.462113
 20
702.958907
 30
0.0
 10
311.855301
 20
702.958907
 30
0.0
 10
311.855301
 20
734.887426
 30
0.0
  0
SPLINE
  5
134
100
AcDbEntity
  8
Lag_1
 62
7
100
AcDbSpline
 70
8
 71
3
 72
8
 73
4
 74
0
 40
0
 40
0
 40
0
 40
0
 40
1
 40
1
 40
1
 40
1
 10
344.049789
 20
735.335875
 30
0.0
 10
344.049789
 20
741.289759
 30
0.0
 10
342.744151
 20
745.916808
 30
0.0
 10
340.124457
 20
749.221211
 30
0.0
  0
SPLINE
  5
135
100
AcDbEntity
  8
Lag_1
 62
7
100
AcDbSpline
 70
8
 71
3
 72
8
 73
4
 74
0
 40
0
 40
0
 40
0
 40
0
 40
1
 40
1
 40
1
 40
1
 10
340.124457
 20
749.221211
 30
0.0
 10
337.534526
 20
752.555384
 30
0.0
 10
333.499436
 20
754.220597
 30
0.0
 10
328.021852
 20
754.220597
 30
0.0
  0
SPLINE
  5
136
100
AcDbEntity
  8
Lag_1
 62
7
100
AcDbSpline
 70
8
 71
3
 72
8
 73
4
 74
0
 40
0
 40
0
 40
0
 40
0
 40
1
 40
1
 40
1
 40
1
 10
328.021852
 20
754.220597
 30
0.0
 10
324.836532
 20
754.220597
 30
0.0
 10
321.845641
 20
753.579544
 30
0.0
 10
319.047307
 20
752.299458
 30
0.0
  0
SPLINE
  5
137
100
AcDbEntity
  8
Lag_1
 62
7
100
AcDbSpline
 70
8
 71
3
 72
8
 73
4
 74
0
 40
0
 40
0
 40
0
 40
0
 40
1
 40
1
 40
1
 40
1
 10
319.047307
 20
752.299458
 30
0.0
 10
316.249002
 20
751.049144
 30
0.0
 10
313.150932
 20
748.995290
 30
0.0
 10
309.757209
 20
746.137426
 30
0.0
  0
SPLINE
  5
138
100
AcDbEntity
  8
Lag_1
 62
7
100
AcDbSpline
 70
8
 71
3
 72
8
 73
4
 74
0
 40
0
 40
0
 40
0
 40
0
 40
1
 40
1
 40
1
 40
1
 10
309.757209
 20
746.137426
 30
0.0
 10
308.596224
 20
748.667826
 30
0.0
 10
306.823805
 20
750.649071
 30
0.0
 10
304.442249
 20
752.078001
 30
0.0
  0
SPLINE
  5
139
100
AcDbEntity
  8
Lag_1
 62
7
100
AcDbSpline
 70
8
 71
3
 72
8
 73
4
 74
0
 40
0
 40
0
 40
0
 40
0
 40
1
 40
1
 40
1
 40
1
 10
304.442249
 20
752.078001
 30
0.0
 10
302.090457
 20
753.506935
 30
0.0
 10
299.221285
 20
754.220597
 30
0.0
 10
295.827591
 20
754.220597
 30
0.0
  0
LWPOLYLINE
  5
13a
100
AcDbEntity
  8
Lag_1
 62
7
100
AcDbPolyline
 90
4
 70
0
 10
335.656573
 20
731.360727
 30
0.0
 10
335.656573
 20
702.958907
 30
0.0
 10
344.049789
 20
702.958907
 30
0.0
 10
344.049789
 20
735.335875
 30
0.0
  0
SPLINE
  5
13b
100
AcDbEntity
  8
Lag_1
 62
7
100
AcDbSpline
 70
8
 71
3
 72
8
 73
4
 74
0
 40
0
 40
0
 40
0
 40
0
 40
1
 40
1
 40
1
 40
1
 10
233.398746
 20
754.043431
 30
0.0
 10
230.392035
 20
754.043431
 30
0.0
 10
227.343064
 20
753.776493
 30
0.0
 10
224.247047
 20
753.240648
 30
0.0
  0
SPLINE
  5
13c
100
AcDbEntity
  8
Lag_1
 62
7
100
AcDbSpline
 70
8
 71
3
 72
8
 73
4
 74
0
 40
0
 40
0
 40
0
 40
0
 40
1
 40
1
 40
1
 40
1
 10
224.247047
 20
753.240648
 30
0.0
 10
221.151027
 20
752.704801
 30
0.0
 10
218.781142
 20
752.214504
 30
0.0
 10
217.143825
 20
751.767962
 30
0.0
  0
LWPOLYLINE
  5
13d
100
AcDbEntity
  8
Lag_1
 62
7
100
AcDbPolyline
 90
2
 70
0
 10
295.827591
 20
754.220597
 30
0.0
 10
295.827392
 20
754.220597
 30
0.0
  0
SPLINE
  5
13e
100
AcDbEntity
  8
Lag_1
 62
7
100
AcDbSpline
 70
8
 71
3
 72
8
 73
4
 74
0
 40
0
 40
0
 40
0
 40
0
 40
1
 40
1
 40
1
 40
1
 10
217.592274
 20
743.236345
 30
0.0
 10
220.479905
 20
744.337811
 30
0.0
 10
223.276467
 20
745.173184
 30
0.0
 10
225.985482
 20
745.738804
 30
0.0
  0
SPLINE
  5
13f
100
AcDbEntity
  8
Lag_1
 62
7
100
AcDbSpline
 70
8
 71
3
 72
8
 73
4
 74
0
 40
0
 40
0
 40
0
 40
0
 40
1
 40
1
 40
1
 40
1
 10
225.985482
 20
745.738804
 30
0.0
 10
228.694499
 20
746.334193
 30
0.0
 10
231.151518
 20
746.630167
 30
0.0
 10
233.354455
 20
746.630167
 30
0.0
  0
SPLINE
  5
140
100
AcDbEntity
  8
Lag_1
 62
7
100
AcDbSpline
 70
8
 71
3
 72
8
 73
4
 74
0
 40
0
 40
0
 40
0
 40
0
 40
1
 40
1
 40
1
 40
1
 10
233.354455
 20
746.630167
 30
0.0
 10
235.170388
 20
746.630167
 30
0.0
 10
236.913744
 20
746.514003
 30
0.0
 10
238.580833
 20
746.275836
 30
0.0
  0
SPLINE
  5
141
100
AcDbEntity
  8
Lag_1
 62
7
100
AcDbSpline
 70
8
 71
3
 72
8
 73
4
 74
0
 40
0
 40
0
 40
0
 40
0
 40
1
 40
1
 40
1
 40
1
 10
238.580833
 20
746.275836
 30
0.0
 10
240.247919
 20
746.037669
 30
0.0
 10
241.675243
 20
745.576430
 30
0.0
 10
242.866018
 20
744.891732
 30
0.0
  0
SPLINE
  5
142
100
AcDbEntity
  8
Lag_1
 62
7
100
AcDbSpline
 70
8
 71
3
 72
8
 73
4
 74
0
 40
0
 40
0
 40
0
 40
0
 40
1
 40
1
 40
1
 40
1
 10
242.866018
 20
744.891732
 30
0.0
 10
244.116334
 20
744.177268
 30
0.0
 10
245.067885
 20
743.191138
 30
0.0
 10
245.722810
 20
741.940821
 30
0.0
  0
SPLINE
  5
143
100
AcDbEntity
  8
Lag_1
 62
7
100
AcDbSpline
 70
8
 71
3
 72
8
 73
4
 74
0
 40
0
 40
0
 40
0
 40
0
 40
1
 40
1
 40
1
 40
1
 10
245.722810
 20
741.940821
 30
0.0
 10
246.407508
 20
740.690507
 30
0.0
 10
246.752583
 20
739.112428
 30
0.0
 10
246.752583
 20
737.207184
 30
0.0
  0
LWPOLYLINE
  5
144
100
AcDbEntity
  8
Lag_1
 62
7
100
AcDbPolyline
 90
3
 70
0
 10
217.143825
 20
751.767962
 30
0.0
 10
217.143825
 20
743.236345
 30
0.0
 10
217.592274
 20
743.236345
 30
0.0
  0
SPLINE
  5
145
100
AcDbEntity
  8
Lag_1
 62
7
100
AcDbSpline
 70
8
 71
3
 72
8
 73
4
 74
0
 40
0
 40
0
 40
0
 40
0
 40
1
 40
1
 40
1
 40
1
 10
246.752583
 20
735.911663
 30
0.0
 10
241.870399
 20
735.673496
 30
0.0
 10
237.295905
 20
735.319446
 30
0.0
 10
233.038879
 20
734.843134
 30
0.0
  0
SPLINE
  5
146
100
AcDbEntity
  8
Lag_1
 62
7
100
AcDbSpline
 70
8
 71
3
 72
8
 73
4
 74
0
 40
0
 40
0
 40
0
 40
0
 40
1
 40
1
 40
1
 40
1
 10
233.038879
 20
734.843134
 30
0.0
 10
228.781851
 20
734.366826
 30
0.0
 10
225.135394
 20
733.458841
 30
0.0
 10
222.098916
 20
732.119219
 30
0.0
  0
SPLINE
  5
147
100
AcDbEntity
  8
Lag_1
 62
7
100
AcDbSpline
 70
8
 71
3
 72
8
 73
4
 74
0
 40
0
 40
0
 40
0
 40
0
 40
1
 40
1
 40
1
 40
1
 10
222.098916
 20
732.119219
 30
0.0
 10
219.092207
 20
730.779593
 30
0.0
 10
216.771423
 20
728.934585
 30
0.0
 10
215.134104
 20
726.582801
 30
0.0
  0
SPLINE
  5
148
100
AcDbEntity
  8
Lag_1
 62
7
100
AcDbSpline
 70
8
 71
3
 72
8
 73
4
 74
0
 40
0
 40
0
 40
0
 40
0
 40
1
 40
1
 40
1
 40
1
 10
215.134104
 20
726.582801
 30
0.0
 10
213.526556
 20
724.260787
 30
0.0
 10
212.725763
 20
721.206281
 30
0.0
 10
212.725763
 20
717.425566
 30
0.0
  0
SPLINE
  5
149
100
AcDbEntity
  8
Lag_1
 62
7
100
AcDbSpline
 70
8
 71
3
 72
8
 73
4
 74
0
 40
0
 40
0
 40
0
 40
0
 40
1
 40
1
 40
1
 40
1
 10
212.725763
 20
717.425566
 30
0.0
 10
212.725763
 20
712.811307
 30
0.0
 10
214.283784
 20
709.019634
 30
0.0
 10
217.409573
 20
706.042692
 30
0.0
  0
SPLINE
  5
14a
100
AcDbEntity
  8
Lag_1
 62
7
100
AcDbSpline
 70
8
 71
3
 72
8
 73
4
 74
0
 40
0
 40
0
 40
0
 40
0
 40
1
 40
1
 40
1
 40
1
 10
217.409573
 20
706.042692
 30
0.0
 10
220.535359
 20
703.065750
 30
0.0
 10
224.347093
 20
701.574803
 30
0.0
 10
228.842274
 20
701.574803
 30
0.0
  0
SPLINE
  5
14b
100
AcDbEntity
  8
Lag_1
 62
7
100
AcDbSpline
 70
8
 71
3
 72
8
 73
4
 74
0
 40
0
 40
0
 40
0
 40
0
 40
1
 40
1
 40
1
 40
1
 10
228.842274
 20
701.574803
 30
0.0
 10
231.283366
 20
701.574803
 30
0.0
 10
233.415366
 20
701.812687
 30
0.0
 10
235.231299
 20
702.289001
 30
0.0
  0
SPLINE
  5
14c
100
AcDbEntity
  8
Lag_1
 62
7
100
AcDbSpline
 70
8
 71
3
 72
8
 73
4
 74
0
 40
0
 40
0
 40
0
 40
0
 40
1
 40
1
 40
1
 40
1
 10
235.231299
 20
702.289001
 30
0.0
 10
237.047233
 20
702.735542
 30
0.0
 10
238.654358
 20
703.303985
 30
0.0
 10
240.053519
 20
703.988680
 30
0.0
  0
SPLINE
  5
14d
100
AcDbEntity
  8
Lag_1
 62
7
100
AcDbSpline
 70
8
 71
3
 72
8
 73
4
 74
0
 40
0
 40
0
 40
0
 40
0
 40
1
 40
1
 40
1
 40
1
 10
240.053519
 20
703.988680
 30
0.0
 10
241.244294
 20
704.524533
 30
0.0
 10
242.462775
 20
705.238194
 30
0.0
 10
243.713089
 20
706.131275
 30
0.0
  0
SPLINE
  5
14e
100
AcDbEntity
  8
Lag_1
 62
7
100
AcDbSpline
 70
8
 71
3
 72
8
 73
4
 74
0
 40
0
 40
0
 40
0
 40
0
 40
1
 40
1
 40
1
 40
1
 10
243.713089
 20
706.131275
 30
0.0
 10
244.993175
 20
707.054125
 30
0.0
 10
246.008347
 20
707.767787
 30
0.0
 10
246.752583
 20
708.273867
 30
0.0
  0
LWPOLYLINE
  5
14f
100
AcDbEntity
  8
Lag_1
 62
7
100
AcDbPolyline
 90
2
 70
0
 10
246.752583
 20
737.207184
 30
0.0
 10
246.752583
 20
735.911663
 30
0.0
  0
SPLINE
  5
150
100
AcDbEntity
  8
Lag_1
 62
7
100
AcDbSpline
 70
8
 71
3
 72
8
 73
4
 74
0
 40
0
 40
0
 40
0
 40
0
 40
1
 40
1
 40
1
 40
1
 10
255.101502
 20
736.808564
 30
0.0
 10
255.101502
 20
740.023659
 30
0.0
 10
254.611205
 20
742.718565
 30
0.0
 10
253.628813
 20
744.891732
 30
0.0
  0
SPLINE
  5
151
100
AcDbEntity
  8
Lag_1
 62
7
100
AcDbSpline
 70
8
 71
3
 72
8
 73
4
 74
0
 40
0
 40
0
 40
0
 40
0
 40
1
 40
1
 40
1
 40
1
 10
253.628813
 20
744.891732
 30
0.0
 10
252.646421
 20
747.064899
 30
0.0
 10
251.213562
 20
748.831765
 30
0.0
 10
249.338092
 20
750.201157
 30
0.0
  0
SPLINE
  5
152
100
AcDbEntity
  8
Lag_1
 62
7
100
AcDbSpline
 70
8
 71
3
 72
8
 73
4
 74
0
 40
0
 40
0
 40
0
 40
0
 40
1
 40
1
 40
1
 40
1
 10
249.338092
 20
750.201157
 30
0.0
 10
247.432847
 20
751.600318
 30
0.0
 10
245.170151
 20
752.586449
 30
0.0
 10
242.550442
 20
753.152066
 30
0.0
  0
SPLINE
  5
153
100
AcDbEntity
  8
Lag_1
 62
7
100
AcDbSpline
 70
8
 71
3
 72
8
 73
4
 74
0
 40
0
 40
0
 40
0
 40
0
 40
1
 40
1
 40
1
 40
1
 10
242.550442
 20
753.152066
 30
0.0
 10
239.960506
 20
753.747454
 30
0.0
 10
236.911535
 20
754.043431
 30
0.0
 10
233.398746
 20
754.043431
 30
0.0
  0
LWPOLYLINE
  5
154
100
AcDbEntity
  8
Lag_1
 62
7
100
AcDbPolyline
 90
4
 70
0
 10
246.752583
 20
708.273867
 30
0.0
 10
246.752583
 20
702.958907
 30
0.0
 10
255.101502
 20
702.958907
 30
0.0
 10
255.101502
 20
736.808564
 30
0.0
  0
SPLINE
  5
155
100
AcDbEntity
  8
Lag_1
 62
7
100
AcDbSpline
 70
8
 71
3
 72
8
 73
4
 74
0
 40
0
 40
0
 40
0
 40
0
 40
1
 40
1
 40
1
 40
1
 10
452.563370
 20
754.043431
 30
0.0
 10
449.556661
 20
754.043431
 30
0.0
 10
446.502132
 20
753.776493
 30
0.0
 10
443.406132
 20
753.240648
 30
0.0
  0
SPLINE
  5
156
100
AcDbEntity
  8
Lag_1
 62
7
100
AcDbSpline
 70
8
 71
3
 72
8
 73
4
 74
0
 40
0
 40
0
 40
0
 40
0
 40
1
 40
1
 40
1
 40
1
 10
443.406132
 20
753.240648
 30
0.0
 10
440.310104
 20
752.704801
 30
0.0
 10
437.945783
 20
752.214504
 30
0.0
 10
436.308435
 20
751.767962
 30
0.0
  0
LWPOLYLINE
  5
157
100
AcDbEntity
  8
Lag_1
 62
7
100
AcDbPolyline
 90
1
 70
1
 10
233.398746
 20
754.043431
 30
0.0
  0
SPLINE
  5
158
100
AcDbEntity
  8
Lag_1
 62
7
100
AcDbSpline
 70
8
 71
3
 72
8
 73
4
 74
0
 40
0
 40
0
 40
0
 40
0
 40
1
 40
1
 40
1
 40
1
 10
436.751348
 20
743.236345
 30
0.0
 10
439.639002
 20
744.337811
 30
0.0
 10
442.441077
 20
745.173184
 30
0.0
 10
445.150091
 20
745.738804
 30
0.0
  0
SPLINE
  5
159
100
AcDbEntity
  8
Lag_1
 62
7
100
AcDbSpline
 70
8
 71
3
 72
8
 73
4
 74
0
 40
0
 40
0
 40
0
 40
0
 40
1
 40
1
 40
1
 40
1
 10
445.150091
 20
745.738804
 30
0.0
 10
447.859106
 20
746.334193
 30
0.0
 10
450.310592
 20
746.630167
 30
0.0
 10
452.513537
 20
746.630167
 30
0.0
  0
SPLINE
  5
15a
100
AcDbEntity
  8
Lag_1
 62
7
100
AcDbSpline
 70
8
 71
3
 72
8
 73
4
 74
0
 40
0
 40
0
 40
0
 40
0
 40
1
 40
1
 40
1
 40
1
 10
452.513537
 20
746.630167
 30
0.0
 10
454.329468
 20
746.630167
 30
0.0
 10
456.072831
 20
746.514003
 30
0.0
 10
457.739915
 20
746.275836
 30
0.0
  0
SPLINE
  5
15b
100
AcDbEntity
  8
Lag_1
 62
7
100
AcDbSpline
 70
8
 71
3
 72
8
 73
4
 74
0
 40
0
 40
0
 40
0
 40
0
 40
1
 40
1
 40
1
 40
1
 10
457.739915
 20
746.275836
 30
0.0
 10
459.406998
 20
746.037669
 30
0.0
 10
460.834328
 20
745.576430
 30
0.0
 10
462.025106
 20
744.891732
 30
0.0
  0
SPLINE
  5
15c
100
AcDbEntity
  8
Lag_1
 62
7
100
AcDbSpline
 70
8
 71
3
 72
8
 73
4
 74
0
 40
0
 40
0
 40
0
 40
0
 40
1
 40
1
 40
1
 40
1
 10
462.025106
 20
744.891732
 30
0.0
 10
463.275411
 20
744.177268
 30
0.0
 10
464.232501
 20
743.191138
 30
0.0
 10
464.887417
 20
741.940821
 30
0.0
  0
SPLINE
  5
15d
100
AcDbEntity
  8
Lag_1
 62
7
100
AcDbSpline
 70
8
 71
3
 72
8
 73
4
 74
0
 40
0
 40
0
 40
0
 40
0
 40
1
 40
1
 40
1
 40
1
 10
464.887417
 20
741.940821
 30
0.0
 10
465.572126
 20
740.690507
 30
0.0
 10
465.911660
 20
739.112428
 30
0.0
 10
465.911660
 20
737.207184
 30
0.0
  0
LWPOLYLINE
  5
15e
100
AcDbEntity
  8
Lag_1
 62
7
100
AcDbPolyline
 90
3
 70
0
 10
436.308435
 20
751.767962
 30
0.0
 10
436.308435
 20
743.236345
 30
0.0
 10
436.751348
 20
743.236345
 30
0.0
  0
SPLINE
  5
15f
100
AcDbEntity
  8
Lag_1
 62
7
100
AcDbSpline
 70
8
 71
3
 72
8
 73
4
 74
0
 40
0
 40
0
 40
0
 40
0
 40
1
 40
1
 40
1
 40
1
 10
465.911660
 20
735.911663
 30
0.0
 10
461.029465
 20
735.673496
 30
0.0
 10
456.460526
 20
735.319446
 30
0.0
 10
452.203483
 20
734.843134
 30
0.0
  0
SPLINE
  5
160
100
AcDbEntity
  8
Lag_1
 62
7
100
AcDbSpline
 70
8
 71
3
 72
8
 73
4
 74
0
 40
0
 40
0
 40
0
 40
0
 40
1
 40
1
 40
1
 40
1
 10
452.203483
 20
734.843134
 30
0.0
 10
447.946469
 20
734.366826
 30
0.0
 10
444.300038
 20
733.458841
 30
0.0
 10
441.263537
 20
732.119219
 30
0.0
  0
SPLINE
  5
161
100
AcDbEntity
  8
Lag_1
 62
7
100
AcDbSpline
 70
8
 71
3
 72
8
 73
4
 74
0
 40
0
 40
0
 40
0
 40
0
 40
1
 40
1
 40
1
 40
1
 10
441.263537
 20
732.119219
 30
0.0
 10
438.256828
 20
730.779593
 30
0.0
 10
435.936019
 20
728.934585
 30
0.0
 10
434.298728
 20
726.582801
 30
0.0
  0
SPLINE
  5
162
100
AcDbEntity
  8
Lag_1
 62
7
100
AcDbSpline
 70
8
 71
3
 72
8
 73
4
 74
0
 40
0
 40
0
 40
0
 40
0
 40
1
 40
1
 40
1
 40
1
 10
434.298728
 20
726.582801
 30
0.0
 10
432.691172
 20
724.260787
 30
0.0
 10
431.884857
 20
721.206281
 30
0.0
 10
431.884857
 20
717.425566
 30
0.0
  0
SPLINE
  5
163
100
AcDbEntity
  8
Lag_1
 62
7
100
AcDbSpline
 70
8
 71
3
 72
8
 73
4
 74
0
 40
0
 40
0
 40
0
 40
0
 40
1
 40
1
 40
1
 40
1
 10
431.884857
 20
717.425566
 30
0.0
 10
431.884857
 20
712.811307
 30
0.0
 10
433.448419
 20
709.019634
 30
0.0
 10
436.574183
 20
706.042692
 30
0.0
  0
SPLINE
  5
164
100
AcDbEntity
  8
Lag_1
 62
7
100
AcDbSpline
 70
8
 71
3
 72
8
 73
4
 74
0
 40
0
 40
0
 40
0
 40
0
 40
1
 40
1
 40
1
 40
1
 10
436.574183
 20
706.042692
 30
0.0
 10
439.699975
 20
703.065750
 30
0.0
 10
443.511694
 20
701.574803
 30
0.0
 10
448.006904
 20
701.574803
 30
0.0
  0
SPLINE
  5
165
100
AcDbEntity
  8
Lag_1
 62
7
100
AcDbSpline
 70
8
 71
3
 72
8
 73
4
 74
0
 40
0
 40
0
 40
0
 40
0
 40
1
 40
1
 40
1
 40
1
 10
448.006904
 20
701.574803
 30
0.0
 10
450.447987
 20
701.574803
 30
0.0
 10
452.574454
 20
701.812687
 30
0.0
 10
454.390384
 20
702.289001
 30
0.0
  0
SPLINE
  5
166
100
AcDbEntity
  8
Lag_1
 62
7
100
AcDbSpline
 70
8
 71
3
 72
8
 73
4
 74
0
 40
0
 40
0
 40
0
 40
0
 40
1
 40
1
 40
1
 40
1
 10
454.390384
 20
702.289001
 30
0.0
 10
456.206315
 20
702.735542
 30
0.0
 10
457.813446
 20
703.303985
 30
0.0
 10
459.212598
 20
703.988680
 30
0.0
  0
SPLINE
  5
167
100
AcDbEntity
  8
Lag_1
 62
7
100
AcDbSpline
 70
8
 71
3
 72
8
 73
4
 74
0
 40
0
 40
0
 40
0
 40
0
 40
1
 40
1
 40
1
 40
1
 10
459.212598
 20
703.988680
 30
0.0
 10
460.403376
 20
704.524533
 30
0.0
 10
461.627405
 20
705.238194
 30
0.0
 10
462.877710
 20
706.131275
 30
0.0
  0
SPLINE
  5
168
100
AcDbEntity
  8
Lag_1
 62
7
100
AcDbSpline
 70
8
 71
3
 72
8
 73
4
 74
0
 40
0
 40
0
 40
0
 40
0
 40
1
 40
1
 40
1
 40
1
 10
462.877710
 20
706.131275
 30
0.0
 10
464.157808
 20
707.054125
 30
0.0
 10
465.167424
 20
707.767787
 30
0.0
 10
465.911660
 20
708.273867
 30
0.0
  0
LWPOLYLINE
  5
169
100
AcDbEntity
  8
Lag_1
 62
7
100
AcDbPolyline
 90
2
 70
0
 10
465.911660
 20
737.207184
 30
0.0
 10
465.911660
 20
735.911663
 30
0.0
  0
SPLINE
  5
16a
100
AcDbEntity
  8
Lag_1
 62
7
100
AcDbSpline
 70
8
 71
3
 72
8
 73
4
 74
0
 40
0
 40
0
 40
0
 40
0
 40
1
 40
1
 40
1
 40
1
 10
474.260570
 20
736.808564
 30
0.0
 10
474.260570
 20
740.023659
 30
0.0
 10
473.770261
 20
742.718565
 30
0.0
 10
472.787887
 20
744.891732
 30
0.0
  0
SPLINE
  5
16b
100
AcDbEntity
  8
Lag_1
 62
7
100
AcDbSpline
 70
8
 71
3
 72
8
 73
4
 74
0
 40
0
 40
0
 40
0
 40
0
 40
1
 40
1
 40
1
 40
1
 10
472.787887
 20
744.891732
 30
0.0
 10
471.805512
 20
747.064899
 30
0.0
 10
470.378183
 20
748.831765
 30
0.0
 10
468.502696
 20
750.201157
 30
0.0
  0
SPLINE
  5
16c
100
AcDbEntity
  8
Lag_1
 62
7
100
AcDbSpline
 70
8
 71
3
 72
8
 73
4
 74
0
 40
0
 40
0
 40
0
 40
0
 40
1
 40
1
 40
1
 40
1
 10
468.502696
 20
750.201157
 30
0.0
 10
466.597474
 20
751.600318
 30
0.0
 10
464.334775
 20
752.586449
 30
0.0
 10
461.715052
 20
753.152066
 30
0.0
  0
SPLINE
  5
16d
100
AcDbEntity
  8
Lag_1
 62
7
100
AcDbSpline
 70
8
 71
3
 72
8
 73
4
 74
0
 40
0
 40
0
 40
0
 40
0
 40
1
 40
1
 40
1
 40
1
 10
461.715052
 20
753.152066
 30
0.0
 10
459.125121
 20
753.747454
 30
0.0
 10
456.076148
 20
754.043431
 30
0.0
 10
452.563370
 20
754.043431
 30
0.0
  0
LWPOLYLINE
  5
16e
100
AcDbEntity
  8
Lag_1
 62
7
100
AcDbPolyline
 90
4
 70
0
 10
465.911660
 20
708.273867
 30
0.0
 10
465.911660
 20
702.958907
 30
0.0
 10
474.260570
 20
702.958907
 30
0.0
 10
474.260570
 20
736.808564
 30
0.0
  0
LWPOLYLINE
  5
16f
100
AcDbEntity
  8
Lag_1
 62
7
100
AcDbPolyline
 90
1
 70
1
 10
452.563370
 20
754.043431
 30
0.0
  0
LWPOLYLINE
  5
170
100
AcDbEntity
  8
Lag_1
 62
7
100
AcDbPolyline
 90
4
 70
1
 10
360.304498
 20
752.836490
 30
0.0
 10
360.304498
 20
702.958907
 30
0.0
 10
368.697713
 20
702.958907
 30
0.0
 10
368.697713
 20
752.836490
 30
0.0
  0
SPLINE
  5
171
100
AcDbEntity
  8
Lag_1
 62
7
100
AcDbSpline
 70
8
 71
3
 72
8
 73
4
 74
0
 40
0
 40
0
 40
0
 40
0
 40
1
 40
1
 40
1
 40
1
 10
246.752583
 20
715.238680
 30
0.0
 10
244.668725
 20
713.631132
 30
0.0
 10
242.406028
 20
712.247374
 30
0.0
 10
239.964936
 20
711.086369
 30
0.0
  0
SPLINE
  5
172
100
AcDbEntity
  8
Lag_1
 62
7
100
AcDbSpline
 70
8
 71
3
 72
8
 73
4
 74
0
 40
0
 40
0
 40
0
 40
0
 40
1
 40
1
 40
1
 40
1
 10
239.964936
 20
711.086369
 30
0.0
 10
237.523844
 20
709.955130
 30
0.0
 10
234.828938
 20
709.386687
 30
0.0
 10
231.881766
 20
709.386687
 30
0.0
  0
SPLINE
  5
173
100
AcDbEntity
  8
Lag_1
 62
7
100
AcDbSpline
 70
8
 71
3
 72
8
 73
4
 74
0
 40
0
 40
0
 40
0
 40
0
 40
1
 40
1
 40
1
 40
1
 10
231.881766
 20
709.386687
 30
0.0
 10
228.339207
 20
709.386687
 30
0.0
 10
225.702388
 20
710.105888
 30
0.0
 10
223.975763
 20
711.534818
 30
0.0
  0
SPLINE
  5
174
100
AcDbEntity
  8
Lag_1
 62
7
100
AcDbSpline
 70
8
 71
3
 72
8
 73
4
 74
0
 40
0
 40
0
 40
0
 40
0
 40
1
 40
1
 40
1
 40
1
 10
223.975763
 20
711.534818
 30
0.0
 10
222.249138
 20
712.993518
 30
0.0
 10
221.384718
 20
715.149026
 30
0.0
 10
221.384718
 20
718.006890
 30
0.0
  0
SPLINE
  5
175
100
AcDbEntity
  8
Lag_1
 62
7
100
AcDbSpline
 70
8
 71
3
 72
8
 73
4
 74
0
 40
0
 40
0
 40
0
 40
0
 40
1
 40
1
 40
1
 40
1
 10
221.384718
 20
718.006890
 30
0.0
 10
221.384718
 20
720.537290
 30
0.0
 10
222.132963
 20
722.518534
 30
0.0
 10
223.621432
 20
723.947465
 30
0.0
  0
SPLINE
  5
176
100
AcDbEntity
  8
Lag_1
 62
7
100
AcDbSpline
 70
8
 71
3
 72
8
 73
4
 74
0
 40
0
 40
0
 40
0
 40
0
 40
1
 40
1
 40
1
 40
1
 10
223.621432
 20
723.947465
 30
0.0
 10
225.109902
 20
725.406165
 30
0.0
 10
227.056567
 20
726.479427
 30
0.0
 10
229.467889
 20
727.164125
 30
0.0
  0
SPLINE
  5
177
100
AcDbEntity
  8
Lag_1
 62
7
100
AcDbSpline
 70
8
 71
3
 72
8
 73
4
 74
0
 40
0
 40
0
 40
0
 40
0
 40
1
 40
1
 40
1
 40
1
 10
229.467889
 20
727.164125
 30
0.0
 10
231.492209
 20
727.729744
 30
0.0
 10
234.230681
 20
728.156418
 30
0.0
 10
237.683931
 20
728.454110
 30
0.0
  0
SPLINE
  5
178
100
AcDbEntity
  8
Lag_1
 62
7
100
AcDbSpline
 70
8
 71
3
 72
8
 73
4
 74
0
 40
0
 40
0
 40
0
 40
0
 40
1
 40
1
 40
1
 40
1
 10
237.683931
 20
728.454110
 30
0.0
 10
241.166954
 20
728.751813
 30
0.0
 10
244.192414
 20
728.975177
 30
0.0
 10
246.752583
 20
729.124016
 30
0.0
  0
LWPOLYLINE
  5
179
100
AcDbEntity
  8
Lag_1
 62
7
100
AcDbPolyline
 90
2
 70
0
 10
246.752583
 20
729.124016
 30
0.0
 10
246.752583
 20
715.238680
 30
0.0
  0
LWPOLYLINE
  5
17a
100
AcDbEntity
  8
Lag_1
 62
7
100
AcDbPolyline
 90
1
 70
1
 10
246.752583
 20
729.124016
 30
0.0
  0
SPLINE
  5
17b
100
AcDbEntity
  8
Lag_1
 62
7
100
AcDbSpline
 70
8
 71
3
 72
8
 73
4
 74
0
 40
0
 40
0
 40
0
 40
0
 40
1
 40
1
 40
1
 40
1
 10
465.911660
 20
715.238680
 30
0.0
 10
463.827798
 20
713.631132
 30
0.0
 10
461.565128
 20
712.247374
 30
0.0
 10
459.124016
 20
711.086369
 30
0.0
  0
SPLINE
  5
17c
100
AcDbEntity
  8
Lag_1
 62
7
100
AcDbSpline
 70
8
 71
3
 72
8
 73
4
 74
0
 40
0
 40
0
 40
0
 40
0
 40
1
 40
1
 40
1
 40
1
 10
459.124016
 20
711.086369
 30
0.0
 10
456.682932
 20
709.955130
 30
0.0
 10
453.988035
 20
709.386687
 30
0.0
 10
451.040854
 20
709.386687
 30
0.0
  0
SPLINE
  5
17d
100
AcDbEntity
  8
Lag_1
 62
7
100
AcDbSpline
 70
8
 71
3
 72
8
 73
4
 74
0
 40
0
 40
0
 40
0
 40
0
 40
1
 40
1
 40
1
 40
1
 10
451.040854
 20
709.386687
 30
0.0
 10
447.498283
 20
709.386687
 30
0.0
 10
444.866995
 20
710.105888
 30
0.0
 10
443.140384
 20
711.534818
 30
0.0
  0
SPLINE
  5
17e
100
AcDbEntity
  8
Lag_1
 62
7
100
AcDbSpline
 70
8
 71
3
 72
8
 73
4
 74
0
 40
0
 40
0
 40
0
 40
0
 40
1
 40
1
 40
1
 40
1
 10
443.140384
 20
711.534818
 30
0.0
 10
441.413745
 20
712.993518
 30
0.0
 10
440.549348
 20
715.149026
 30
0.0
 10
440.549348
 20
718.006890
 30
0.0
  0
SPLINE
  5
17f
100
AcDbEntity
  8
Lag_1
 62
7
100
AcDbSpline
 70
8
 71
3
 72
8
 73
4
 74
0
 40
0
 40
0
 40
0
 40
0
 40
1
 40
1
 40
1
 40
1
 10
440.549348
 20
718.006890
 30
0.0
 10
440.549348
 20
720.537290
 30
0.0
 10
441.292025
 20
722.518534
 30
0.0
 10
442.780498
 20
723.947465
 30
0.0
  0
SPLINE
  5
180
100
AcDbEntity
  8
Lag_1
 62
7
100
AcDbSpline
 70
8
 71
3
 72
8
 73
4
 74
0
 40
0
 40
0
 40
0
 40
0
 40
1
 40
1
 40
1
 40
1
 10
442.780498
 20
723.947465
 30
0.0
 10
444.268998
 20
725.406165
 30
0.0
 10
446.221191
 20
726.479427
 30
0.0
 10
448.632510
 20
727.164125
 30
0.0
  0
SPLINE
  5
181
100
AcDbEntity
  8
Lag_1
 62
7
100
AcDbSpline
 70
8
 71
3
 72
8
 73
4
 74
0
 40
0
 40
0
 40
0
 40
0
 40
1
 40
1
 40
1
 40
1
 10
448.632510
 20
727.164125
 30
0.0
 10
450.656844
 20
727.729744
 30
0.0
 10
453.395310
 20
728.156418
 30
0.0
 10
456.848561
 20
728.454110
 30
0.0
  0
SPLINE
  5
182
100
AcDbEntity
  8
Lag_1
 62
7
100
AcDbSpline
 70
8
 71
3
 72
8
 73
4
 74
0
 40
0
 40
0
 40
0
 40
0
 40
1
 40
1
 40
1
 40
1
 10
456.848561
 20
728.454110
 30
0.0
 10
460.331575
 20
728.751813
 30
0.0
 10
463.351493
 20
728.975177
 30
0.0
 10
465.911660
 20
729.124016
 30
0.0
  0
LWPOLYLINE
  5
183
100
AcDbEntity
  8
Lag_1
 62
7
100
AcDbPolyline
 90
2
 70
0
 10
465.911660
 20
729.124016
 30
0.0
 10
465.911660
 20
715.238680
 30
0.0
  0
LWPOLYLINE
  5
184
100
AcDbEntity
  8
Lag_1
 62
7
100
AcDbPolyline
 90
1
 70
1
 10
465.911660
 20
729.124016
 30
0.0
  0
ENDSEC
  0
SECTION
  2
OBJECTS
  0
DICTIONARY
  5
C
330
0
100
AcDbDictionary
  3
ACAD_GROUP
350
D
  3
ACAD_MLINESTYLE
350
17
  0
DICTIONARY
  5
D
330
C
100
AcDbDictionary
  0
DICTIONARY
  5
1A
330
C
100
AcDbDictionary
  0
DICTIONARY
  5
17
330
C
100
AcDbDictionary
  3
STANDARD
350
18
  0
DICTIONARY
  5
19
330
C
100
AcDbDictionary
  0
ENDSEC
  0
EOF
