<?xml version="1.0" encoding="UTF-8" standalone="no"?>
<svg
   xmlns:dc="http://purl.org/dc/elements/1.1/"
   xmlns:cc="http://creativecommons.org/ns#"
   xmlns:rdf="http://www.w3.org/1999/02/22-rdf-syntax-ns#"
   xmlns:svg="http://www.w3.org/2000/svg"
   xmlns="http://www.w3.org/2000/svg"
   xmlns:sodipodi="http://sodipodi.sourceforge.net/DTD/sodipodi-0.dtd"
   xmlns:inkscape="http://www.inkscape.org/namespaces/inkscape"
   width="220mm"
   height="320mm"
   viewBox="0 0 220 320"
   version="1.1"
   id="svg8"
   inkscape:version="1.0.2 (e86c870879, 2021-01-15, custom)"
   sodipodi:docname="card.svg">
  <defs
     id="defs2" />
  <sodipodi:namedview
     id="base"
     pagecolor="#ffffff"
     bordercolor="#666666"
     borderopacity="1.0"
     inkscape:pageopacity="0.0"
     inkscape:pageshadow="2"
     inkscape:zoom="0.35"
     inkscape:cx="-150"
     inkscape:cy="560"
     inkscape:document-units="mm"
     inkscape:current-layer="layer1"
     inkscape:document-rotation="0"
     showgrid="false"
     inkscape:window-width="1424"
     inkscape:window-height="1208"
     inkscape:window-x="160"
     inkscape:window-y="135"
     inkscape:window-maximized="0" />
  <metadata
     id="metadata5">
    <rdf:RDF>
      <cc:Work
         rdf:about="">
        <dc:format>image/svg+xml</dc:format>
        <dc:type
           rdf:resource="http://purl.org/dc/dcmitype/StillImage" />
        <dc:title></dc:title>
      </cc:Work>
    </rdf:RDF>
  </metadata>
  <g
     inkscape:label="Lag 1"
     inkscape:groupmode="layer"
     id="layer1">
    <rect
       style="fill:none;fill-rule:evenodd;stroke:#000000;stroke-width:0.99585;stroke-miterlimit:4;stroke-dasharray:none;stroke-opacity:1"
       id="rect10"
       width="199.00417"
       height="299.00415"
       x="10.49792"
       y="10.49792" />
    <rect
       style="fill:#000000;fill-opacity:1;stroke:none;stroke-width:1.08925"
       id="rect1402"
       width="200"
       height="100"
       x="10"
       y="10" />
    <g
       aria-label="Camilla"
       id="text1406"
       style="font-style:normal;font-weight:normal;font-size:32.2621px;line-height:1.25;font-family:sans-serif;fill:#ffffff;fill-opacity:1;stroke:none;stroke-width:0.806555">
      <path
         id="path1420"
         style="fill:#ffffff;stroke-width:0.806555"
         d="m 135.96094,47.5 v 24.511719 h 2.96094 V 47.5 Z m 8.85351,0 v 24.511719 h 2.96094 V 47.5 Z m -80.624997,0.630859 c -1.722325,0 -3.291216,0.267133 -4.708984,0.802735 -1.407267,0.535601 -2.609734,1.313338 -3.607422,2.332031 -1.029195,1.050198 -1.817178,2.336587 -2.363281,3.859375 -0.546104,1.522788 -0.81836,3.249275 -0.81836,5.181641 0,2.037385 0.282502,3.829255 0.84961,5.373047 0.567107,1.53329 1.355091,2.797233 2.363281,3.794921 1.029195,1.018693 2.236784,1.770815 3.623047,2.253907 1.396764,0.472589 2.945163,0.708984 4.646484,0.708984 0.903171,0 1.728968,-0.07367 2.47461,-0.220703 0.756142,-0.136526 1.453128,-0.304369 2.09375,-0.503906 0.756143,-0.241546 1.366037,-0.472818 1.828124,-0.69336 0.47259,-0.220542 0.998564,-0.456937 1.576172,-0.708984 V 66.65625 h -0.220703 c -1.144716,1.029195 -2.374752,1.799856 -3.6875,2.314453 -1.312748,0.514597 -2.718919,0.773438 -4.220703,0.773438 -1.092206,0 -2.131954,-0.185165 -3.11914,-0.552735 -0.976685,-0.378071 -1.833221,-0.955275 -2.56836,-1.732422 -0.703633,-0.745641 -1.280836,-1.711713 -1.732422,-2.898437 -0.441084,-1.186725 -0.662109,-2.605094 -0.662109,-4.253906 0,-1.575298 0.200533,-2.960977 0.599609,-4.158203 0.409578,-1.207729 0.976535,-2.204539 1.701172,-2.992188 0.745641,-0.808653 1.589978,-1.403178 2.535156,-1.78125 0.955681,-0.388573 2.02812,-0.582031 3.214844,-0.582031 1.449275,0 2.809338,0.246641 4.080078,0.740234 1.27074,0.493593 2.552006,1.281577 3.84375,2.363281 h 0.236328 v -3.703125 c -1.533289,-0.766644 -2.931167,-1.30091 -4.191406,-1.605468 -1.249736,-0.304558 -2.505386,-0.457032 -3.765625,-0.457032 z m 62.728517,0.267579 v 3.072265 h 3.33984 v -3.072265 z m -22.55664,5.529296 c -1.0397,0 -2.02309,0.21395 -2.94727,0.644532 -0.91367,0.430581 -1.83168,1.030229 -2.755857,1.796875 v -1.953125 h -2.960937 v 17.595703 h 2.960937 V 58.873047 c 0.808653,-0.619617 1.617127,-1.128268 2.425777,-1.527344 0.81916,-0.399075 1.63276,-0.599609 2.44141,-0.599609 0.85066,0 1.50155,0.116612 1.95313,0.347656 0.45158,0.220541 0.79946,0.556227 1.04101,1.007812 0.22055,0.42008 0.36083,0.981914 0.42383,1.685547 0.0735,0.693132 0.11133,1.427932 0.11133,2.205079 v 10.019531 h 2.96093 V 60.748047 c 0,-0.31506 -0.0102,-0.630253 -0.0312,-0.945313 -0.021,-0.325561 -0.0466,-0.608063 -0.0781,-0.849609 0.82966,-0.640621 1.65863,-1.166595 2.48828,-1.576172 0.82966,-0.420079 1.65863,-0.630859 2.48828,-0.630859 0.85066,0 1.50154,0.116612 1.95313,0.347656 0.45158,0.231043 0.79947,0.571852 1.04101,1.023438 0.22056,0.420079 0.36278,0.981913 0.42578,1.685546 0.0735,0.703634 0.10938,1.433311 0.10938,2.189454 v 10.019531 h 2.96094 V 60.589844 c 0,-2.100398 -0.4606,-3.732718 -1.38477,-4.898438 -0.91367,-1.176222 -2.33716,-1.763672 -4.26953,-1.763672 -1.12371,0 -2.17883,0.226149 -3.16602,0.677735 -0.98718,0.441083 -2.08011,1.165637 -3.27734,2.173828 -0.40957,-0.892669 -1.03484,-1.591608 -1.875,-2.095703 -0.82966,-0.504096 -1.84184,-0.75586 -3.03906,-0.75586 z m -22.023439,0.0625 c -1.060701,0 -2.13631,0.09417 -3.228516,0.283204 -1.092207,0.189035 -1.92825,0.362001 -2.505859,0.519531 v 3.009765 h 0.158203 c 1.018692,-0.388573 2.005257,-0.683274 2.960937,-0.882812 0.955681,-0.21004 1.822463,-0.314453 2.59961,-0.314453 0.640621,0 1.255638,0.04098 1.84375,0.125 0.588111,0.08402 1.091639,0.246735 1.511718,0.488281 0.441084,0.252047 0.77677,0.599932 1.007813,1.041016 0.241546,0.441083 0.363281,0.997794 0.363281,1.669922 v 0.457031 c -1.722326,0.08402 -3.336106,0.208921 -4.83789,0.376953 -1.501785,0.168031 -2.788174,0.488348 -3.859376,0.960937 -1.0607,0.47259 -1.879421,1.123468 -2.457031,1.953125 -0.567107,0.819155 -0.849609,1.896717 -0.849609,3.230469 0,1.627808 0.549635,2.965426 1.652344,4.015625 1.102708,1.050199 2.447403,1.576172 4.033203,1.576172 0.861163,0 1.613285,-0.08392 2.253906,-0.251953 0.640621,-0.15753 1.207579,-0.358064 1.701172,-0.599609 0.420079,-0.189037 0.849932,-0.440801 1.291015,-0.75586 0.451586,-0.325561 0.809716,-0.577325 1.072266,-0.755859 v 1.875 h 2.945313 V 60.070312 c 0,-1.134214 -0.172966,-2.084917 -0.519532,-2.851562 -0.346566,-0.766645 -0.852047,-1.389956 -1.513671,-1.873047 -0.672128,-0.493593 -1.470357,-0.841478 -2.394532,-1.041015 -0.913672,-0.21004 -1.989281,-0.314454 -3.228515,-0.314454 z m 77.316409,0 c -1.0607,0 -2.13827,0.09417 -3.23047,0.283204 -1.09221,0.189035 -1.92629,0.362001 -2.50391,0.519531 v 3.009765 h 0.15625 c 1.0187,-0.388573 2.00721,-0.683274 2.96289,-0.882812 0.95568,-0.21004 1.82051,-0.314453 2.59766,-0.314453 0.64062,0 1.25564,0.04098 1.84375,0.125 0.58811,0.08402 1.09164,0.246735 1.51172,0.488281 0.44108,0.252047 0.77872,0.599932 1.00976,1.041016 0.24155,0.441083 0.36133,0.997794 0.36133,1.669922 v 0.457031 c -1.72233,0.08402 -3.33415,0.208921 -4.83594,0.376953 -1.50178,0.168031 -2.78816,0.488348 -3.85937,0.960937 -1.0607,0.47259 -1.87943,1.123468 -2.45703,1.953125 -0.56711,0.819155 -0.85156,1.896717 -0.85156,3.230469 0,1.627808 0.55159,2.965426 1.65429,4.015625 1.10271,1.050199 2.4474,1.576172 4.03321,1.576172 0.86116,0 1.61133,-0.08392 2.25195,-0.251953 0.64062,-0.15753 1.20758,-0.358064 1.70117,-0.599609 0.42008,-0.189037 0.85189,-0.440801 1.29297,-0.75586 0.45159,-0.325561 0.80776,-0.577325 1.07031,-0.755859 v 1.875 h 2.94531 V 60.070312 c 0,-1.134214 -0.17297,-2.084917 -0.51953,-2.851562 -0.34656,-0.766645 -0.85009,-1.389956 -1.51172,-1.873047 -0.67212,-0.493593 -1.47035,-0.841478 -2.39453,-1.041015 -0.91367,-0.21004 -1.98928,-0.314454 -3.22851,-0.314454 z m -32.54688,0.425782 v 17.595703 h 2.96094 V 54.416016 Z M 87.048828,62.78125 v 4.898438 c -0.735139,0.567107 -1.533368,1.055266 -2.394531,1.464843 -0.861163,0.399076 -1.811866,0.59961 -2.851563,0.59961 -1.249736,0 -2.179947,-0.253718 -2.789062,-0.757813 -0.609115,-0.514597 -0.914063,-1.275012 -0.914063,-2.283203 0,-0.892669 0.263964,-1.591608 0.789063,-2.095703 0.525099,-0.514597 1.211839,-0.89322 2.0625,-1.134766 0.714135,-0.199538 1.680207,-0.350059 2.898437,-0.455078 1.228733,-0.105023 2.296048,-0.183821 3.199219,-0.236328 z m 77.314452,0 v 4.898438 c -0.73514,0.567107 -1.53336,1.055266 -2.39453,1.464843 -0.86116,0.399076 -1.81186,0.59961 -2.85156,0.59961 -1.24974,0 -2.178,-0.253718 -2.78711,-0.757813 -0.60912,-0.514597 -0.91406,-1.275012 -0.91406,-2.283203 0,-0.892669 0.262,-1.591608 0.7871,-2.095703 0.52511,-0.514597 1.2138,-0.89322 2.06446,-1.134766 0.71414,-0.199538 1.68021,-0.350059 2.89844,-0.455078 1.22873,-0.105023 2.29409,-0.183821 3.19726,-0.236328 z" />
    </g>
  </g>
</svg>
